HIERARCHY
ROOT root
{
	OFFSET 0.000000 0.000000 0.000000
	CHANNELS 6 Xposition Yposition Zposition Zrotation Yrotation Xrotation
	JOINT lhip
	{
		OFFSET 0.058581 -0.082280 -0.017664
		CHANNELS 3 Zrotation Yrotation Xrotation
		JOINT lknee
		{
			OFFSET 0.043451 -0.386469 0.008037
			CHANNELS 3 Zrotation Yrotation Xrotation
			JOINT lankle
			{
				OFFSET -0.014790 -0.426874 -0.037428
				CHANNELS 3 Zrotation Yrotation Xrotation
				JOINT ltoe
				{
					OFFSET 0.041054 -0.060286 0.122042
					CHANNELS 3 Zrotation Yrotation Xrotation
					End Site
					{
						OFFSET 0.000000 0.000000 0.000000
					}
				}
			}
		}
	}
	JOINT rhip
	{
		OFFSET -0.060310 -0.090513 -0.013543
		CHANNELS 3 Zrotation Yrotation Xrotation
		JOINT rknee
		{
			OFFSET -0.043257 -0.383688 -0.004843
			CHANNELS 3 Zrotation Yrotation Xrotation
			JOINT rankle
			{
				OFFSET 0.019056 -0.420046 -0.034562
				CHANNELS 3 Zrotation Yrotation Xrotation
				JOINT rtoe
				{
					OFFSET -0.034840 -0.062106 0.130323
					CHANNELS 3 Zrotation Yrotation Xrotation
					End Site
					{
						OFFSET 0.000000 0.000000 0.000000
					}
				}
			}
		}
	}
	JOINT lowerback
	{
		OFFSET 0.004439 0.124404 -0.038385
		CHANNELS 3 Zrotation Yrotation Xrotation
		JOINT upperback
		{
			OFFSET 0.004488 0.137956 0.026820
			CHANNELS 3 Zrotation Yrotation Xrotation
			JOINT chest
			{
				OFFSET -0.002265 0.056032 0.002855
				CHANNELS 3 Zrotation Yrotation Xrotation
				JOINT lowerneck
				{
					OFFSET -0.013390 0.211636 -0.033468
					CHANNELS 3 Zrotation Yrotation Xrotation
					JOINT upperneck
					{
						OFFSET 0.010113 0.088937 0.050410
						CHANNELS 3 Zrotation Yrotation Xrotation
						End Site
						{
							OFFSET 0.000000 0.000000 0.000000
						}
					}
				}
				JOINT lclavicle
				{
					OFFSET 0.071702 0.114000 -0.018898
					CHANNELS 3 Zrotation Yrotation Xrotation
					JOINT lshoulder
					{
						OFFSET 0.122921 0.045205 -0.019046
						CHANNELS 3 Zrotation Yrotation Xrotation
						JOINT lelbow
						{
							OFFSET 0.255332 -0.015649 -0.022946
							CHANNELS 3 Zrotation Yrotation Xrotation
							JOINT lwrist
							{
								OFFSET 0.265709 0.012698 -0.007375
								CHANNELS 3 Zrotation Yrotation Xrotation
								End Site
								{
									OFFSET 0.000000 0.000000 0.000000
								}
							}
						}
					}
				}
				JOINT rclavicle
				{
					OFFSET -0.082954 0.112472 -0.023707
					CHANNELS 3 Zrotation Yrotation Xrotation
					JOINT rshoulder
					{
						OFFSET -0.113228 0.046853 -0.008472
						CHANNELS 3 Zrotation Yrotation Xrotation
						JOINT relbow
						{
							OFFSET -0.260127 -0.014369 -0.031269
							CHANNELS 3 Zrotation Yrotation Xrotation
							JOINT rwrist
							{
								OFFSET -0.269108 0.006794 -0.006027
								CHANNELS 3 Zrotation Yrotation Xrotation
								End Site
								{
									OFFSET 0.000000 0.000000 0.000000
								}
							}
						}
					}
				}
			}
		}
	}
}
MOTION
Frames: 13
Frame Time: 0.033333
1.751145 0.746377 0.994247 -88.757589 3.202882 86.189075 2.408507 1.138076 7.723012 -2.262567 -12.204639 1.736485 4.570075 8.288271 -16.629764 0.000000 -0.000000 0.000000 3.477380 -1.107599 4.737010 2.931786 1.961618 7.710082 2.361367 -4.652040 -13.045732 0.000000 -0.000000 0.000000 -1.223763 0.615976 4.922545 1.554196 -3.303082 3.206251 1.165813 -1.910939 3.726659 3.359241 0.177661 -8.758557 3.628795 -6.463505 -4.171021 -28.508635 -1.019131 0.145221 -61.482365 -7.325892 10.058325 7.210815 -17.292160 7.960135 -4.256217 -1.592069 -3.363101 26.769909 3.656956 -1.736323 60.336896 6.084693 12.611881 -11.299598 18.399298 -1.392067 7.206468 -0.798848 -5.933724 
1.751350 0.746589 0.994144 -88.810734 3.176057 86.272209 2.376514 1.057022 7.629205 -2.258448 -12.107563 1.709544 4.504644 8.311510 -16.618137 0.000000 -0.000000 0.000000 3.446727 -0.973042 4.605938 2.948229 1.858397 7.716966 2.482577 -4.572718 -13.092328 0.000000 -0.000000 0.000000 -1.233094 0.658388 4.771409 1.513581 -3.241827 3.183308 1.177529 -1.924805 3.796804 3.451324 0.343545 -8.946871 3.476850 -6.476886 -3.989856 -28.482350 -1.075274 0.188818 -61.531447 -7.446402 10.213460 7.234010 -17.404352 7.875576 -4.189321 -1.791202 -3.385631 26.716430 3.799562 -1.751071 60.581284 6.272203 12.776575 -11.471921 18.083953 -1.412840 7.036747 -0.889755 -5.963022 
1.751558 0.746816 0.994050 -88.948353 3.111098 86.316266 2.321003 1.091543 7.564899 -2.295472 -12.032407 1.746164 4.499987 8.324792 -16.631253 0.000000 -0.000000 0.000000 3.341042 -0.850246 4.465744 3.044484 1.798166 7.863858 2.413811 -4.483211 -13.078718 0.000000 -0.000000 0.000000 -1.296444 0.769080 4.748155 1.500235 -3.167813 3.112228 1.176745 -1.912231 3.776244 3.481340 0.359766 -8.880690 3.479585 -6.462110 -3.947474 -28.428836 -1.098941 0.196805 -61.557264 -7.462811 10.195809 7.266315 -17.427297 7.866403 -4.433097 -1.762288 -3.504627 26.706953 3.804850 -1.731292 60.698983 6.339346 12.793991 -11.501140 18.139001 -1.413070 7.139712 -0.889678 -6.011010 
1.751398 0.747084 0.994027 -88.945561 3.045425 86.296686 2.209441 0.947204 7.589836 -2.227599 -11.951524 1.775432 4.532141 8.422799 -16.626878 0.000000 -0.000000 0.000000 3.304036 -0.776631 4.511585 3.009614 1.810747 7.863312 2.481228 -4.591707 -13.141582 0.000000 -0.000000 0.000000 -1.305757 0.849453 4.746023 1.465109 -3.112713 3.036452 1.136937 -1.943828 3.827117 3.496397 0.418773 -8.999902 3.461407 -6.407846 -3.822650 -28.469500 -1.119506 0.063894 -61.454888 -7.544336 10.186532 7.192165 -17.148094 7.787493 -4.513596 -1.711897 -3.344901 26.709237 3.734837 -1.782878 60.788999 6.286741 12.939772 -11.412425 18.348013 -1.387656 7.222854 -0.651644 -6.077875 
1.751454 0.747205 0.993988 -88.909463 3.031007 86.363752 2.224870 0.950684 7.508034 -2.266987 -11.950764 1.783496 4.536159 8.380853 -16.616771 0.000000 -0.000000 0.000000 3.316333 -0.727692 4.426629 2.992722 1.792172 7.865075 2.502914 -4.623004 -13.087454 0.000000 -0.000000 0.000000 -1.337430 0.877692 4.695759 1.470947 -3.104910 2.957754 1.170539 -1.917953 3.782093 3.445037 0.501751 -8.891951 3.456338 -6.298982 -3.772625 -28.443031 -1.166141 0.136834 -61.499148 -7.550376 10.179050 7.218886 -17.116743 7.771050 -4.531596 -1.718140 -3.387126 26.668676 3.722362 -1.710488 60.855630 6.266600 12.957860 -11.445142 18.363446 -1.321448 7.236718 -0.642531 -6.134995 
1.751454 0.747423 0.993969 -88.855875 3.005885 86.422594 2.216259 0.884195 7.402125 -2.308571 -12.012490 1.841850 4.541373 8.363562 -16.631747 0.000000 -0.000000 0.000000 3.324495 -0.668815 4.342202 2.974860 1.747028 7.903354 2.464693 -4.626396 -13.133555 0.000000 -0.000000 0.000000 -1.338184 0.938520 4.683885 1.449915 -3.079496 2.840655 1.163052 -1.947952 3.725951 3.417122 0.635392 -8.753669 3.444970 -6.207634 -3.757903 -28.432751 -1.107285 0.181607 -61.464758 -7.515702 10.167768 7.290143 -17.062890 7.802945 -4.287534 -1.710067 -3.238965 26.649424 3.614859 -1.760315 60.976391 6.239955 12.953030 -11.380240 18.283199 -1.165839 7.132097 -0.716507 -6.028069 
1.751218 0.747484 0.993952 -88.745743 3.035280 86.374996 2.246856 0.879114 7.389856 -2.284986 -12.035428 1.956172 4.513788 8.320090 -16.620003 0.000000 -0.000000 0.000000 3.347591 -0.698353 4.446122 3.023598 1.667631 7.850681 2.437378 -4.654862 -13.088293 0.000000 -0.000000 0.000000 -1.302211 0.897870 4.685803 1.449660 -3.101531 2.870555 1.149202 -1.944831 3.714581 3.433450 0.632867 -8.757514 3.444757 -6.171104 -3.785543 -28.435929 -1.074504 0.203876 -61.391303 -7.516101 10.122693 7.339082 -17.030705 7.790097 -4.293716 -1.827147 -3.335117 26.613679 3.620338 -1.717659 61.006738 6.231909 12.920410 -11.366341 18.327799 -1.230734 7.047368 -0.645460 -6.144789 
1.750653 0.747702 0.993750 -88.641793 3.131096 86.419749 2.375229 0.840506 7.326265 -2.267263 -12.137924 1.977770 4.491656 8.397320 -16.610850 0.000000 -0.000000 0.000000 3.514705 -0.790973 4.410520 2.969936 1.704897 7.860987 2.353504 -4.714574 -13.174374 0.000000 -0.000000 0.000000 -1.247669 0.851615 4.451747 1.476397 -3.103116 2.952162 1.156439 -1.913286 3.767300 3.426911 0.665196 -8.708141 3.458513 -6.143696 -3.795292 -28.464449 -1.011731 0.203578 -61.297482 -7.531795 10.080007 7.296387 -16.872023 7.818685 -3.958229 -1.588100 -2.901951 26.630517 3.596646 -1.713591 60.978893 6.219394 12.848120 -11.349437 18.223183 -1.146250 7.058444 -0.792920 -5.984259 
1.750244 0.747668 0.993824 -88.637171 3.143233 86.370973 2.400151 0.918777 7.439689 -2.291192 -12.183485 1.948319 4.491733 8.395010 -16.662932 0.000000 -0.000000 0.000000 3.502021 -0.945129 4.480476 3.020968 1.757042 7.897209 2.251865 -4.720631 -13.246328 0.000000 -0.000000 0.000000 -1.221857 0.874023 4.416288 1.484587 -3.070414 2.988720 1.150885 -1.904159 3.770664 3.549617 0.578455 -8.830072 3.518559 -6.223272 -3.817772 -28.487901 -1.008607 0.182680 -61.201730 -7.467520 10.033707 7.198220 -16.712255 7.935990 -3.896671 -1.418237 -2.736691 26.608327 3.561085 -1.800068 60.955561 6.146434 12.769468 -11.320021 18.106054 -1.132786 7.060116 -0.781433 -5.891821 
1.749354 0.747793 0.993761 -88.444516 3.207495 86.282771 2.478015 0.792092 7.637932 -2.262037 -12.234645 1.858148 4.505304 8.380491 -16.682123 0.000000 -0.000000 0.000000 3.580983 -1.021999 4.820158 3.046431 1.779652 7.556682 2.291113 -4.816004 -13.188169 0.000000 -0.000000 0.000000 -1.176673 0.767765 4.398168 1.468256 -3.142822 3.032316 1.163844 -1.859816 3.670388 3.492615 0.543002 -8.518796 3.583862 -6.055306 -3.919945 -28.397916 -0.971392 0.440468 -61.222891 -7.344008 9.908773 7.372214 -16.824928 7.790933 -4.208012 -1.539610 -3.202148 26.550142 3.615537 -1.570509 60.995907 6.079828 12.689094 -11.429393 18.052923 -1.093193 7.235844 -0.934455 -6.064775 
1.748896 0.747788 0.993719 -88.508069 3.154760 86.280535 2.405574 0.759725 7.694675 -2.231288 -12.176131 1.828227 4.522017 8.383899 -16.661593 0.000000 -0.000000 0.000000 3.519766 -0.995995 4.863859 3.036919 1.782864 7.543395 2.226753 -4.802072 -13.144344 0.000000 -0.000000 0.000000 -1.212148 0.858674 4.359829 1.460689 -3.132744 2.984115 1.170023 -1.886360 3.656991 3.542452 0.567352 -8.489206 3.561915 -5.990046 -3.884491 -28.488356 -0.922032 0.489829 -61.086413 -7.246193 9.819721 7.359112 -16.656417 7.741782 -4.410508 -1.447020 -3.205986 26.583045 3.550394 -1.543647 60.864179 6.038461 12.660129 -11.399403 18.000599 -1.151505 7.315369 -0.954098 -6.110831 
1.748676 0.748057 0.993694 -88.535727 3.189723 86.359305 2.463405 0.753033 7.601638 -2.256878 -12.216223 1.878667 4.503418 8.453218 -16.709527 0.000000 -0.000000 0.000000 3.598091 -0.959771 4.773089 3.011261 1.733363 7.616622 2.178116 -4.812826 -13.279676 0.000000 -0.000000 0.000000 -1.184369 0.828702 4.364345 1.448730 -3.067572 2.757467 1.160889 -1.833672 3.707247 3.546863 0.576453 -8.514300 3.579084 -6.002437 -3.782915 -28.434650 -0.823783 0.534287 -61.037575 -7.188814 9.741779 7.374342 -16.633813 7.595547 -4.440645 -1.565294 -3.463035 26.560326 3.448327 -1.492631 60.845318 5.961941 12.632665 -11.386690 17.994243 -1.117031 7.276277 -0.938795 -6.157258 
1.747540 0.747887 0.993937 -88.324310 3.139566 86.157460 2.425469 0.804861 7.943340 -2.233903 -12.449011 1.766488 4.534303 8.431330 -16.783978 0.000000 -0.000000 0.000000 3.527363 -1.188370 5.226834 3.036171 1.835059 7.382966 2.162260 -4.896361 -13.233650 0.000000 -0.000000 0.000000 -1.221342 0.802888 4.415907 1.430885 -3.163760 2.878569 1.173234 -1.866975 3.695397 3.597432 0.591550 -8.575825 3.564936 -5.906137 -3.871265 -28.488906 -0.701892 0.592832 -60.906753 -6.997291 9.705722 7.425259 -16.632950 7.944987 -4.360113 -1.644288 -3.254615 26.523388 3.374383 -1.589471 60.835903 5.773634 12.525767 -11.380325 18.042736 -1.085079 7.232808 -0.910053 -6.107147 
